<svg xmlns="http://www.w3.org/2000/svg" xmlns:xlink="http://www.w3.org/1999/xlink" version="1.1" id="Calque_1" x="0px" y="0px" width="100px" height="100px" viewBox="0 0 100 100" enable-background="new 0 0 100 100" xml:space="preserve">
<g>
	<path fill="none" d="M18.275,56.111c5.143,0,9.321,4.179,9.321,9.305v3.462h0.005v11.465c0,3.377,2.735,6.1,6.093,6.1h32.111   c3.358,0,6.092-2.723,6.092-6.1v-0.145l0,0V65.416c0-5.07,4.087-9.213,9.153-9.292v-0.013h0.162h10.415L74.987,27.033H24.513   L7.872,56.111h7.795H18.275z"/>
	<path fill="none" d="M81.213,59.328c-3.377,0-6.111,2.736-6.111,6.088v4.326h0.008v10.601c0,5.151-4.178,9.329-9.304,9.329H33.694   c-5.125,0-9.304-4.178-9.304-9.329v-0.145h-0.01V65.416c0-3.352-2.737-6.088-6.105-6.088h-2.608H7.206v1.914v33.084h85.089V61.242   v-1.914H81.213z"/>
	<path d="M95.326,56.111L76.853,23.817H22.647L4.173,56.111H3.989v0.294v4.837v36.285h91.521V61.242v-4.837v-0.294H95.326z    M24.513,27.033h50.475l16.641,29.079H81.213h-0.162v0.013c-5.066,0.079-9.153,4.222-9.153,9.292v14.782l0,0v0.145   c0,3.377-2.733,6.1-6.092,6.1H33.694c-3.358,0-6.093-2.723-6.093-6.1V68.878h-0.005v-3.462c0-5.126-4.178-9.305-9.321-9.305h-2.608   H7.872L24.513,27.033z M92.295,94.326H7.206V61.242v-1.914h8.462h2.608c3.368,0,6.105,2.736,6.105,6.088v14.782h0.01v0.145   c0,5.151,4.178,9.329,9.304,9.329h32.111c5.126,0,9.304-4.178,9.304-9.329V69.742h-0.008v-4.326c0-3.352,2.734-6.088,6.111-6.088   h11.082v1.914V94.326z"/>
</g>
<rect x="43.352" y="2.527" width="12.798" height="27.623"/>
<polygon points="64.836,30.15 49.75,56.277 34.664,30.15 "/>
</svg>